# xmcd
#
# Track frame offsets: 
#        150
#        21794
#        41078
#        57936
#        76591
#        100875
#        116818
#        138039
#        164645
#
# Disc length: 2506 seconds
#
# Revision: 0
# Processed by: cddbd v1.5.2PL0 Copyright (c) Steve Scherf et al.
# Submitted via: ExactAudioCopy v1.0b3
#
DISCID=6e09c809
DTITLE=Blackberry Brothers - Old Soul
DYEAR=2018
DGENRE=Southern Rock
TTITLE0=Dusty Road
TTITLE1=Southern Sparrow
TTITLE2=Raise Me
TTITLE3=Rising Sun
TTITLE4=List of Needs
TTITLE5=One More Bird
TTITLE6=Tell Me
TTITLE7=Sweets for Cannibals
TTITLE8=Life One
EXTD=
EXTT0=
EXTT1=
EXTT2=
EXTT3=
EXTT4=
EXTT5=
EXTT6=
EXTT7=
EXTT8=
PLAYORDER=
